<svg viewBox="0 0 64 64" xml:space="preserve" xmlns="http://www.w3.org/2000/svg"><circle cx="32" cy="32" fill="#353342" r="32" class="fill-c75c5c"></circle><path d="M16.954 50c-4.4 0-6.2-3.118-4-6.928L28 17.012c2.2-3.811 5.8-3.811 8 0l15.046 26.06c2.2 3.811.4 6.928-4 6.928H16.954z" fill="#231F20" opacity=".2" class="fill-231f20"></path><path d="M16.954 48c-4.4 0-6.2-3.118-4-6.928L28 15.012c2.2-3.811 5.8-3.811 8 0l15.046 26.06c2.2 3.811.4 6.928-4 6.928H16.954z" fill="#f1615e" class="fill-f5cf87"></path><path d="M34 32a2 2 0 1 1-4 0v-8a2 2 0 1 1 4 0v8zM34 40a2 2 0 1 1-4 0 2 2 0 1 1 4 0z" fill="#e9eaec" class="fill-4f5d73"></path></svg>