<svg viewBox="0 0 512 512" xml:space="preserve" xmlns="http://www.w3.org/2000/svg"><path clip-rule="evenodd" d="M411.149 88.275h-.005c-37.613-37.608-89.055-58.324-144.833-58.314-63.583.005-127.224 27.195-174.612 74.602-47.407 47.397-74.602 111.045-74.606 174.618 0 55.786 20.72 107.216 58.339 144.823 37.617 37.623 89.053 58.34 144.833 58.33 63.568 0 127.211-27.19 174.603-74.602 92.554-92.548 99.856-235.857 16.281-319.457z" fill="#f1615e" fill-rule="evenodd" class="fill-54b75a"></path><path d="M248.585 109.682c-83.815 0-151.769 61.896-151.769 138.25 0 33.807 13.339 64.766 35.465 88.785l-17.133 66.961 88.924-23.555c14.072 3.932 29.02 6.056 44.513 6.056 83.813 0 151.768-61.894 151.768-138.247s-67.955-138.25-151.768-138.25zm-7.73 245.777c-8.918 0-17.567-1.109-25.82-3.194A102.75 102.75 0 0 1 204.553 349l-36.349 16.18-20.399 9.084 8.867-16.342 15.346-28.285a102.11 102.11 0 0 1-17.231-19.576c-10.753-15.939-17.031-35.033-17.031-55.568 0-55.762 46.161-100.967 103.101-100.967 56.93 0 103.086 45.205 103.086 100.967-.002 55.761-46.158 100.966-103.088 100.966z" fill="#e9eaec" class="fill-ffffff"></path></svg>