<svg viewBox="0 0 512 512" xml:space="preserve" xmlns="http://www.w3.org/2000/svg" enable-background="new 0 0 512 512"><path d="M113 183.9c-5.1 14.1-7.9 29.3-7.9 45.2.3 73.1 59.6 132.3 132.3 132.1 72.8-.2 132.3-59.8 132.1-132.3-.1-28.3-6.7-52.2-22-73.7M332.3 136.9c-.6-.7.8.8 0 0M316.6 122.2c-22.7-18.2-48.2-25.4-79.3-25.3-46.9.1-88.2 24.8-111.7 61.6" fill="none" stroke="#f1615e" stroke-width="12" stroke-linecap="round" stroke-linejoin="round" stroke-miterlimit="10" class="stroke-000000"></path><path d="M404.2 399.8 331.4 327c-3.5-3.5-9.2-3.5-12.7 0s-3.5 9.2 0 12.7l72.8 72.8c3.5 3.5 9.2 3.5 12.7 0s3.5-9.2 0-12.7z" fill="#f1615e" class="fill-000000"></path></svg>